<svg xmlns="http://www.w3.org/2000/svg" x="0px" y="0px"
width="64" height="64"
viewBox="0 0 172 172"
style=" fill:#000000;"><g fill="none" fill-rule="nonzero" stroke="none" stroke-width="1" stroke-linecap="butt" stroke-linejoin="miter" stroke-miterlimit="10" stroke-dasharray="" stroke-dashoffset="0" font-family="none" font-weight="none" font-size="none" text-anchor="none" style="mix-blend-mode: normal"><path d="M0,172v-172h172v172z" fill="none"></path><g fill="#333333"><path d="M23.17064,9.92308c-7.30471,0 -13.24757,6.21066 -13.24757,13.84515c0.00662,82.19516 -0.01209,101.32489 0.02132,101.6282c0.36451,11.50184 8.83933,20.14204 19.82483,20.14204h63.49348l-5.521,4.83104c-1.03729,0.9073 -1.40324,2.36267 -0.91866,3.65267c0.48491,1.28967 1.71846,2.14419 3.09644,2.14419h68.84974c1.82651,0 3.30769,-1.48118 3.30769,-3.30769v-60.24328c0,-1.29794 -0.75885,-2.47563 -1.94069,-3.01181c-1.18151,-0.53618 -2.56867,-0.33207 -3.54543,0.52264l-4.43696,3.88266v-60.93196c0,-1.82684 -1.48118,-3.30769 -3.30769,-3.30769h-112.46154v-6.37312c0,-7.55477 -5.80408,-13.47303 -13.21397,-13.47303zM140.57692,9.92308c-4.55965,0 -8.26923,3.70958 -8.26923,8.26923c0,4.55965 3.70958,8.26923 8.26923,8.26923c4.55965,0 8.26923,-3.70958 8.26923,-8.26923c0,-4.55965 -3.70958,-8.26923 -8.26923,-8.26923zM49.61538,13.23077c-1.82679,0 -3.30769,1.4809 -3.30769,3.30769c0,1.82679 1.4809,3.30769 3.30769,3.30769c1.82679,0 3.30769,-1.4809 3.30769,-3.30769c0,-1.82679 -1.4809,-3.30769 -3.30769,-3.30769zM119.07692,13.23077c-1.82679,0 -3.30769,1.4809 -3.30769,3.30769c0,1.82679 1.4809,3.30769 3.30769,3.30769c1.82679,0 3.30769,-1.4809 3.30769,-3.30769c0,-1.82679 -1.4809,-3.30769 -3.30769,-3.30769zM23.17064,16.53846c3.76184,0 6.59859,2.94797 6.59859,6.857c-0.00033,16.75512 -0.00065,88.81958 -0.00065,90.59911c-4.23054,-2.70834 -9.23741,-2.53012 -13.23012,-0.12146v-90.1049c0,-3.98643 2.97553,-7.22976 6.63218,-7.22976zM140.57692,16.53846c0.91193,0 1.65385,0.74192 1.65385,1.65385c0,0.91193 -0.74192,1.65385 -1.65385,1.65385c-0.91193,0 -1.65385,-0.74192 -1.65385,-1.65385c0,-0.91193 0.74192,-1.65385 1.65385,-1.65385zM76.07692,19.84615v6.61538h13.23077v-6.61538zM92.61538,19.84615v6.61538h6.61538v-6.61538zM36.38397,36.38462h6.61603v72.76923c0,1.82651 1.48085,3.30769 3.30769,3.30769c1.82684,0 3.30769,-1.48118 3.30769,-3.30769v-72.76923h95.92308v63.41273l-44.71522,39.12574h-71.05401c-7.45322,0 -12.9919,-5.78992 -13.21914,-13.79024c0.30795,-3.65698 3.19148,-6.50233 6.61991,-6.50233c3.35929,0 6.38346,3.31931 6.60376,7.24785c0.10022,1.78781 1.60642,3.17259 3.39555,3.12099c1.79012,-0.04995 3.21466,-1.51562 3.21466,-3.3064zM59.53846,43c-1.82684,0 -3.30769,1.48085 -3.30769,3.30769c0,1.82684 1.48085,3.30769 3.30769,3.30769h72.76923v36.38462c0,1.82651 1.48118,3.30769 3.30769,3.30769c1.82651,0 3.30769,-1.48118 3.30769,-3.30769v-39.69231c0,-1.82684 -1.48118,-3.30769 -3.30769,-3.30769zM93.11283,52.92308c-0.65716,0 -1.31434,0.19515 -1.87996,0.58595l-32.09108,22.16865c-1.50302,1.03828 -1.88007,3.09803 -0.84178,4.60105c1.03828,1.50302 3.09901,1.8804 4.6017,0.84178l3.33806,-2.30634v27.03199c0,1.82651 1.48085,3.30769 3.30769,3.30769h45.97886c1.82651,0 3.3077,-1.48118 3.30769,-3.30769v-27.8279l4.49058,3.10225c1.49607,1.03365 3.55878,0.66849 4.6017,-0.84114c1.03862,-1.50302 0.66123,-3.56341 -0.84178,-4.6017l-32.09172,-22.16865c-0.56562,-0.3908 -1.2228,-0.58595 -1.87996,-0.58595zM93.11283,60.25104l19.1058,13.19782v29.0896h-39.36347v-28.29369zM102.53846,72.76923c-1.82651,0 -3.30769,1.48085 -3.30769,3.30769v13.23077h-13.23077c-1.82684,0 -3.30769,1.48118 -3.30769,3.30769c0,1.82651 1.48085,3.30769 3.30769,3.30769h16.53846c1.82651,0 3.30769,-1.48118 3.30769,-3.30769v-16.53846c0,-1.82684 -1.48118,-3.30769 -3.30769,-3.30769zM155.46154,99.90458v49.64704h-56.73855zM147.17551,114.11538c-0.78053,0.0041 -1.55115,0.28433 -2.16163,0.81852l-26.46154,23.15385c-1.03729,0.9073 -1.40259,2.36234 -0.91801,3.65267c0.48491,1.28967 1.71846,2.14419 3.09644,2.14419h26.46154c1.82651,0 3.30769,-1.48118 3.30769,-3.30769v-23.15385c0,-1.29794 -0.75885,-2.47563 -1.94069,-3.01181c-0.44307,-0.20106 -0.91549,-0.29835 -1.3838,-0.29588zM46.30769,115.76923c-1.82679,0 -3.30769,1.4809 -3.30769,3.30769c0,1.82679 1.4809,3.30769 3.30769,3.30769c1.82679,0 3.30769,-1.4809 3.30769,-3.30769c0,-1.82679 -1.4809,-3.30769 -3.30769,-3.30769zM143.88462,124.71227v12.55696h-14.35099zM46.30769,125.69231c-1.82679,0 -3.30769,1.4809 -3.30769,3.30769c0,1.82679 1.4809,3.30769 3.30769,3.30769c1.82679,0 3.30769,-1.4809 3.30769,-3.30769c0,-1.82679 -1.4809,-3.30769 -3.30769,-3.30769zM56.23077,125.69231c-1.82679,0 -3.30769,1.4809 -3.30769,3.30769c0,1.82679 1.4809,3.30769 3.30769,3.30769c1.82679,0 3.30769,-1.4809 3.30769,-3.30769c0,-1.82679 -1.4809,-3.30769 -3.30769,-3.30769zM44.65385,148.84615c-4.55965,0 -8.26923,3.70958 -8.26923,8.26923c0,4.55965 3.70958,8.26923 8.26923,8.26923c4.55965,0 8.26923,-3.70958 8.26923,-8.26923c0,-4.55965 -3.70958,-8.26923 -8.26923,-8.26923zM44.65385,155.46154c0.91193,0 1.65385,0.74192 1.65385,1.65385c0,0.91193 -0.74192,1.65385 -1.65385,1.65385c-0.91193,0 -1.65385,-0.74192 -1.65385,-1.65385c0,-0.91193 0.74192,-1.65385 1.65385,-1.65385z"></path></g></g></svg>