<?xml version="1.0" encoding="UTF-8" standalone="no"?>
<!DOCTYPE svg PUBLIC "-//W3C//DTD SVG 1.1//EN" "http://www.w3.org/Graphics/SVG/1.1/DTD/svg11.dtd">
<svg width="100%" height="100%" viewBox="0 0 602 605" version="1.1" xmlns="http://www.w3.org/2000/svg" xmlns:xlink="http://www.w3.org/1999/xlink" xml:space="preserve" xmlns:serif="http://www.serif.com/" style="fill-rule:evenodd;clip-rule:evenodd;stroke-linejoin:round;stroke-miterlimit:1.41421;">
    <g id="b71ccbba-e8b4-459a-9884-0222885cf9eb" transform="matrix(1,0,0,1,-299.008,-147.505)">
        <path d="M898.163,184.085L299.529,256.092C299.459,256.101 299.388,256.089 299.326,256.058C299.26,256.025 299.203,255.977 299.16,255.918C299.11,255.851 299.072,255.775 299.048,255.695C299.02,255.602 299.007,255.506 299.008,255.41C299.008,255.31 299.021,255.211 299.049,255.115C299.074,255.027 299.113,254.942 299.163,254.865C299.207,254.796 299.263,254.735 299.329,254.685C299.388,254.641 299.458,254.612 299.532,254.602L898.163,181.601C898.351,181.577 898.542,181.587 898.727,181.63C898.893,181.669 899.049,181.74 899.188,181.84C899.317,181.934 899.423,182.056 899.499,182.197C899.574,182.341 899.613,182.501 899.613,182.663C899.612,182.836 899.573,183.005 899.499,183.161C899.422,183.323 899.316,183.469 899.188,183.593C899.052,183.725 898.897,183.833 898.727,183.915C898.549,184.002 898.359,184.06 898.163,184.085Z" style="fill:rgb(202,202,202);fill-rule:nonzero;"/>
    </g>
    <g id="fbe4cf51-249d-4766-a31e-46e69d2d3573" transform="matrix(1,0,0,1,-299.008,-147.505)">
        <path d="M899.241,752.487L299.391,691.425C299.322,691.418 299.256,691.391 299.201,691.347C299.144,691.301 299.1,691.242 299.07,691.174C299.036,691.098 299.015,691.016 299.01,690.932C299.003,690.836 299.011,690.739 299.033,690.646C299.055,690.548 299.09,690.455 299.138,690.367C299.182,690.286 299.238,690.212 299.304,690.148C299.362,690.09 299.43,690.043 299.505,690.009C299.573,689.979 299.647,689.966 299.721,689.972L899.786,750.064C899.975,750.082 900.159,750.133 900.33,750.216C900.483,750.29 900.62,750.394 900.733,750.522C900.839,750.642 900.916,750.784 900.959,750.938C901,751.095 901.004,751.26 900.968,751.418C900.929,751.586 900.853,751.743 900.747,751.879C900.637,752.02 900.502,752.139 900.349,752.232C900.188,752.331 900.012,752.403 899.828,752.445C899.636,752.492 899.438,752.506 899.241,752.487Z" style="fill:rgb(202,202,202);fill-rule:nonzero;"/>
    </g>
    <g id="aefee446-e8cd-48bc-a6ae-8085c53a4aa5" transform="matrix(1,0,0,1,-299.008,-147.505)">
        <path d="M311.416,227.486C312.196,227.366 312.994,227.474 313.713,227.797C314.453,228.14 315.1,228.656 315.598,229.302C316.17,230.039 316.602,230.876 316.873,231.769C317.19,232.802 317.347,233.877 317.34,234.957C317.341,236.079 317.184,237.196 316.873,238.275C316.589,239.274 316.159,240.227 315.598,241.102C315.099,241.89 314.46,242.581 313.713,243.14C313.039,243.644 312.25,243.971 311.416,244.091C310.637,244.198 309.843,244.076 309.131,243.742C308.4,243.388 307.763,242.866 307.274,242.218C306.713,241.481 306.29,240.65 306.025,239.764C305.715,238.743 305.561,237.681 305.568,236.615C305.568,235.506 305.721,234.403 306.025,233.337C306.303,232.346 306.724,231.4 307.273,230.53C307.765,229.741 308.394,229.047 309.131,228.481C309.799,227.965 310.584,227.623 311.416,227.486Z" style="fill:rgb(63,61,86);fill-rule:nonzero;"/>
    </g>
    <g id="a4b9cd5e-e7a9-439c-9762-a8720b874a73" transform="matrix(1,0,0,1,-299.008,-147.505)">
        <path d="M332.217,224.365C333.031,224.239 333.865,224.347 334.621,224.676C335.392,225.02 336.069,225.545 336.596,226.206C337.193,226.955 337.645,227.81 337.93,228.725C338.261,229.78 338.426,230.88 338.417,231.985C338.418,233.135 338.253,234.278 337.927,235.381C337.629,236.405 337.18,237.38 336.596,238.273C336.07,239.084 335.402,239.792 334.624,240.363C333.916,240.884 333.09,241.223 332.22,241.349C331.406,241.46 330.577,241.338 329.829,240.998C329.067,240.641 328.401,240.108 327.885,239.443C327.3,238.695 326.857,237.846 326.577,236.938C326.253,235.896 326.092,234.81 326.099,233.719C326.099,232.584 326.26,231.456 326.577,230.366C326.869,229.349 327.309,228.379 327.882,227.489C328.4,226.679 329.058,225.968 329.826,225.39C330.528,224.859 331.349,224.507 332.217,224.365Z" style="fill:rgb(63,61,86);fill-rule:nonzero;"/>
    </g>
    <g id="a94385bb-e1a1-4da4-9c03-9925c8c84fb9" transform="matrix(1,0,0,1,-299.008,-147.505)">
        <path d="M353.991,221.093C354.842,220.961 355.714,221.067 356.508,221.4C357.312,221.749 358.021,222.285 358.574,222.963C359.199,223.726 359.674,224.599 359.974,225.538C360.322,226.614 360.495,227.739 360.488,228.87C360.488,230.048 360.314,231.22 359.974,232.347C359.659,233.402 359.187,234.402 358.574,235.316C358.021,236.151 357.321,236.878 356.508,237.462C355.763,237.999 354.899,238.347 353.991,238.478C353.139,238.594 352.272,238.473 351.486,238.127C350.692,237.767 349.994,237.224 349.45,236.543C348.84,235.781 348.377,234.912 348.084,233.981C347.746,232.918 347.577,231.808 347.584,230.693C347.584,229.529 347.752,228.371 348.084,227.256C348.391,226.212 348.851,225.219 349.45,224.309C349.995,223.474 350.684,222.743 351.487,222.151C352.225,221.603 353.084,221.241 353.991,221.093Z" style="fill:rgb(63,61,86);fill-rule:nonzero;"/>
    </g>
    <g id="e9fb7174-288f-46c4-ab91-f423808d7a61" transform="matrix(1,0,0,1,-299.008,-147.505)">
        <path d="M865.9,152.401L829.399,157.678C829.057,157.73 828.71,157.717 828.373,157.64C828.07,157.57 827.785,157.437 827.536,157.251C827.3,157.074 827.107,156.844 826.974,156.581C826.836,156.305 826.765,156.001 826.767,155.694C826.769,155.366 826.839,155.042 826.974,154.743C827.111,154.434 827.302,154.151 827.536,153.908C827.78,153.654 828.062,153.441 828.373,153.277C828.693,153.107 829.04,152.993 829.399,152.94L865.9,147.54C866.258,147.485 866.624,147.495 866.98,147.571C867.298,147.639 867.598,147.771 867.863,147.96C868.379,148.329 868.684,148.929 868.676,149.564C868.674,149.903 868.599,150.237 868.458,150.544C868.311,150.864 868.11,151.156 867.863,151.406C867.334,151.943 866.645,152.292 865.9,152.403L865.9,152.401Z" style="fill:rgb(63,61,86);fill-rule:nonzero;"/>
    </g>
    <g id="f4f63b1d-19b6-4660-a2ee-fe9c59ab2b83" transform="matrix(1,0,0,1,-299.008,-147.505)">
        <path d="M865.9,161.513L829.399,166.567C829.057,166.616 828.709,166.601 828.373,166.522C828.07,166.452 827.785,166.32 827.536,166.134C827.3,165.955 827.107,165.725 826.974,165.46C826.834,165.181 826.764,164.873 826.767,164.561C826.769,164.234 826.839,163.911 826.974,163.612C827.111,163.304 827.302,163.023 827.536,162.781C827.78,162.53 828.062,162.32 828.373,162.159C828.694,161.991 829.04,161.879 829.399,161.828L865.9,156.652C866.259,156.599 866.625,156.612 866.98,156.69C867.298,156.761 867.599,156.896 867.863,157.087C868.112,157.268 868.316,157.504 868.459,157.777C868.604,158.06 868.679,158.375 868.676,158.693C868.674,159.031 868.599,159.365 868.458,159.671C868.311,159.989 868.109,160.279 867.861,160.527C867.332,161.06 866.642,161.406 865.898,161.511L865.9,161.513Z" style="fill:rgb(63,61,86);fill-rule:nonzero;"/>
    </g>
    <g id="eb3f2030-579f-46ae-b7f9-06846804faba" transform="matrix(1,0,0,1,-299.008,-147.505)">
        <path d="M865.9,170.625L829.399,175.445C829.057,175.493 828.709,175.476 828.373,175.395C828.07,175.322 827.785,175.187 827.536,174.998C827.047,174.627 826.761,174.045 826.767,173.431C826.768,173.104 826.839,172.781 826.973,172.482C827.111,172.175 827.301,171.895 827.536,171.654C827.78,171.403 828.062,171.193 828.373,171.032C828.694,170.866 829.041,170.756 829.399,170.707L865.9,165.765C866.259,165.714 866.625,165.729 866.98,165.81C867.298,165.883 867.599,166.02 867.863,166.212C868.112,166.395 868.316,166.632 868.459,166.906C868.604,167.19 868.679,167.505 868.676,167.823C868.674,168.161 868.599,168.494 868.458,168.8C868.311,169.118 868.109,169.408 867.861,169.655C867.331,170.186 866.641,170.527 865.898,170.627L865.9,170.625Z" style="fill:rgb(63,61,86);fill-rule:nonzero;"/>
    </g>
    <g id="ed3b43a5-e52b-42db-ae2c-bbf19919dda8" transform="matrix(1,0,0,1,-299.008,-147.505)">
        <path d="M692.359,254.766L868.678,239.833L868.678,344.933L692.359,347.234L692.359,254.766Z" style="fill:rgb(47,46,65);fill-rule:nonzero;"/>
    </g>
    <g id="ac2eae0c-5080-4fe0-b0c3-f9d754c11698" transform="matrix(1,0,0,1,-299.008,-147.505)">
        <path d="M829.756,392.443L725.044,390.362C723.835,390.341 722.68,389.854 721.82,389.004C721.408,388.597 721.077,388.114 720.846,387.582C720.61,387.037 720.489,386.45 720.489,385.856C720.489,385.267 720.61,384.685 720.846,384.145C721.076,383.621 721.407,383.147 721.82,382.752C722.238,382.352 722.73,382.037 723.267,381.823C723.833,381.6 724.436,381.49 725.044,381.499L829.756,382.879C830.466,382.887 831.169,383.024 831.83,383.282C832.455,383.526 833.031,383.882 833.529,384.333C834.009,384.765 834.399,385.288 834.677,385.871C834.953,386.458 835.097,387.098 835.098,387.746C835.098,388.39 834.954,389.026 834.677,389.607C834.4,390.181 834.01,390.692 833.529,391.11C833.03,391.545 832.454,391.883 831.83,392.105C831.165,392.342 830.462,392.456 829.756,392.44L829.756,392.443Z" style="fill:rgb(47,46,65);fill-rule:nonzero;"/>
    </g>
    <g id="b3e575b2-619a-4403-8cc7-960fb099e65d" transform="matrix(1,0,0,1,-299.008,-147.505)">
        <path d="M811.767,375.92L740.878,375.325C740.253,375.321 739.636,375.196 739.058,374.958C738.507,374.73 738.004,374.401 737.576,373.987C737.154,373.58 736.815,373.095 736.578,372.558C736.091,371.45 736.091,370.186 736.578,369.078C736.815,368.545 737.153,368.063 737.576,367.66C738.004,367.25 738.507,366.926 739.058,366.704C739.636,366.471 740.254,366.353 740.878,366.355L811.767,366.476C812.458,366.476 813.144,366.603 813.789,366.851C814.399,367.085 814.96,367.43 815.445,367.869C815.915,368.293 816.295,368.807 816.565,369.38C817.112,370.548 817.112,371.901 816.565,373.068C816.296,373.637 815.915,374.147 815.446,374.566C814.961,375 814.399,375.34 813.79,375.567C813.143,375.809 812.458,375.929 811.768,375.922L811.767,375.92Z" style="fill:rgb(47,46,65);fill-rule:nonzero;"/>
    </g>
    <g id="b6f8ac03-6581-403f-aeca-47fca949167f" transform="matrix(1,0,0,1,-299.008,-147.505)">
        <path d="M692.359,422.913L868.678,430.952L868.678,536.053L692.359,515.38L692.359,422.913Z" style="fill:rgb(47,46,65);fill-rule:nonzero;"/>
    </g>
    <g id="a17e3a22-ba16-4351-b475-1e8c7f62d0cf" transform="matrix(1,0,0,1,-299.008,-147.505)">
        <path d="M829.756,578.492L725.044,562.767C724.42,562.672 723.818,562.464 723.267,562.153C722.724,561.847 722.235,561.453 721.82,560.987C721.41,560.53 721.081,560.007 720.846,559.44C720.613,558.878 720.492,558.276 720.489,557.668C720.485,557.092 720.607,556.523 720.846,556C721.072,555.512 721.405,555.08 721.82,554.737C722.244,554.389 722.737,554.137 723.267,553.998C723.847,553.847 724.452,553.815 725.044,553.904L829.756,568.926C830.48,569.032 831.182,569.26 831.83,569.6C832.461,569.93 833.035,570.359 833.529,570.872C834.007,571.364 834.395,571.937 834.677,572.563C834.95,573.17 835.094,573.827 835.098,574.493C835.103,575.12 834.958,575.739 834.677,576.299C834.404,576.833 834.011,577.297 833.529,577.653C833.023,578.027 832.444,578.29 831.83,578.426C831.149,578.578 830.445,578.6 829.756,578.491L829.756,578.492Z" style="fill:rgb(47,46,65);fill-rule:nonzero;"/>
    </g>
    <g id="e3c2f847-4324-4f71-a395-b34127131530" transform="matrix(1,0,0,1,-299.008,-147.505)">
        <path d="M811.767,559.627L740.878,549.794C740.24,549.704 739.624,549.499 739.058,549.19C738.503,548.886 738.002,548.492 737.576,548.024C737.157,547.567 736.82,547.04 736.579,546.469C736.34,545.902 736.216,545.294 736.213,544.679C736.209,544.095 736.333,543.518 736.578,542.988C736.811,542.49 737.152,542.05 737.576,541.7C738.01,541.343 738.515,541.083 739.058,540.937C739.651,540.779 740.27,540.741 740.878,540.825L811.767,550.182C812.473,550.277 813.157,550.493 813.789,550.82C814.405,551.138 814.964,551.555 815.445,552.054C815.912,552.536 816.291,553.096 816.564,553.709C816.831,554.307 816.971,554.954 816.974,555.609C816.978,556.229 816.838,556.841 816.564,557.397C816.298,557.927 815.916,558.389 815.445,558.749C814.953,559.123 814.389,559.391 813.789,559.534C813.127,559.693 812.441,559.723 811.767,559.625L811.767,559.627Z" style="fill:rgb(47,46,65);fill-rule:nonzero;"/>
    </g>
    <g id="e0ac5af8-db2c-46e2-8c29-d7faefa5f799" transform="matrix(1,0,0,1,-299.008,-147.505)">
        <path d="M589.933,516.175L312.716,480.682C311.962,480.575 311.247,480.279 310.636,479.822C309.966,479.323 309.392,478.704 308.945,477.998C308.444,477.215 308.06,476.364 307.807,475.47C307.53,474.503 307.389,473.503 307.389,472.498L307.389,297.429C307.388,296.43 307.529,295.435 307.807,294.475C308.059,293.598 308.442,292.764 308.945,292.003C309.391,291.317 309.965,290.723 310.636,290.254C311.251,289.823 311.968,289.56 312.716,289.49L589.933,266.792C592.335,266.585 594.71,267.454 596.411,269.163C597.264,270.018 597.937,271.036 598.389,272.156C598.876,273.365 599.124,274.657 599.119,275.96L599.119,507.428C599.126,508.72 598.878,510.001 598.389,511.197C597.94,512.292 597.266,513.281 596.411,514.099C595.579,514.891 594.581,515.489 593.49,515.848C592.344,516.221 591.128,516.333 589.933,516.175Z" style="fill:white;fill-rule:nonzero;"/>
    </g>
    <g id="ef100bb2-3038-4c55-8635-fb645de4c704" transform="matrix(1,0,0,1,-299.008,-147.505)">
        <path d="M480.322,387.08C479.578,386.114 478.74,385.223 477.819,384.423C476.944,383.661 475.99,382.994 474.974,382.434C473.995,381.894 472.957,381.466 471.881,381.159C470.824,380.859 469.733,380.686 468.634,380.644C467.548,380.604 466.46,380.695 465.395,380.917C464.334,381.139 463.303,381.485 462.323,381.947C461.322,382.42 460.376,383.004 459.505,383.686C458.596,384.398 457.765,385.203 457.025,386.088L382.433,475.231C381.572,476.287 380.468,477.12 379.216,477.659C378.069,478.138 376.817,478.314 375.582,478.169C374.292,478.008 373.057,477.55 371.974,476.831C370.731,476.005 369.66,474.947 368.818,473.714L358.937,459.509C357.801,457.825 356.343,456.382 354.648,455.262C353.2,454.308 351.543,453.715 349.818,453.534C348.181,453.377 346.53,453.656 345.035,454.342C343.398,455.115 341.969,456.269 340.87,457.708L322.993,480.374L572.891,511.924L572.891,507.492L480.322,387.08Z" style="fill:rgb(78,128,99);fill-rule:nonzero;"/>
    </g>
    <g id="b26a6d5f-b740-4ee8-acda-543250f0498e" transform="matrix(1,0,0,1,-299.008,-147.505)">
        <path d="M589.932,519.521L312.716,483.251C311.706,483.104 310.748,482.705 309.931,482.091C309.034,481.419 308.267,480.589 307.669,479.641C306.999,478.593 306.487,477.453 306.149,476.257C305.779,474.964 305.591,473.627 305.591,472.283L305.591,297.561C305.59,296.226 305.778,294.896 306.149,293.613C306.485,292.438 306.997,291.32 307.669,290.298C308.266,289.379 309.034,288.583 309.93,287.953C310.754,287.374 311.714,287.018 312.716,286.921L589.932,263.439C593.155,263.153 596.344,264.313 598.631,266.602C599.779,267.748 600.685,269.113 601.294,270.617C601.949,272.241 602.283,273.976 602.277,275.727L602.277,507.805C602.286,509.542 601.952,511.263 601.294,512.87C600.689,514.34 599.782,515.667 598.631,516.763C597.512,517.824 596.17,518.623 594.704,519.102C593.165,519.596 591.534,519.74 589.932,519.522L589.932,519.521ZM312.716,292.059C312.223,292.104 311.75,292.276 311.343,292.559C310.9,292.868 310.521,293.26 310.225,293.712C309.893,294.215 309.639,294.765 309.472,295.345C309.288,295.979 309.195,296.635 309.196,297.295L309.196,472.709C309.196,473.373 309.289,474.034 309.472,474.672C309.64,475.262 309.894,475.825 310.225,476.341C310.521,476.81 310.901,477.22 311.345,477.55C311.748,477.851 312.22,478.045 312.718,478.114L589.934,512.821C590.722,512.924 591.523,512.849 592.278,512.601C592.996,512.362 593.652,511.967 594.199,511.444C594.762,510.905 595.205,510.253 595.499,509.532C595.82,508.744 595.983,507.901 595.978,507.05L595.978,276.191C595.982,275.334 595.819,274.484 595.499,273.689C595.203,272.951 594.761,272.28 594.199,271.716C593.081,270.587 591.518,270.011 589.934,270.142L312.716,292.059Z" style="fill:rgb(203,203,203);fill-rule:nonzero;"/>
    </g>
    <path d="M52.59,554.197L60.925,554.196L64.89,522.047L52.589,522.048L52.59,554.197Z" style="fill:rgb(255,182,182);fill-rule:nonzero;"/>
    <g transform="matrix(1,0,0,1,-299.008,-147.505)">
        <path d="M349.472,698.981L365.886,698.98L365.887,698.98C371.625,698.98 376.347,703.702 376.348,709.44L376.348,709.78L349.472,709.781L349.472,698.981Z" style="fill:rgb(47,46,65);fill-rule:nonzero;"/>
    </g>
    <path d="M129.414,565.197L137.749,565.196L141.714,533.047L129.413,533.048L129.414,565.197Z" style="fill:rgb(255,182,182);fill-rule:nonzero;"/>
    <g transform="matrix(1,0,0,1,-299.008,-147.505)">
        <path d="M426.296,709.981L442.71,709.98L442.711,709.98C448.449,709.98 453.171,714.702 453.172,720.44L453.172,720.78L426.296,720.781L426.296,709.981Z" style="fill:rgb(47,46,65);fill-rule:nonzero;"/>
    </g>
    <path d="M119.351,306.919L124.79,341.592L73.12,342.272L79.919,308.959L119.351,306.919Z" style="fill:rgb(255,182,182);fill-rule:nonzero;"/>
    <g transform="matrix(1,0,0,1,-299.008,-147.505)">
        <path d="M422.298,480.631L438.754,524.45L440.794,706.041L426.856,706.041L393.543,560.142L362.95,691.233L349.353,691.233L358.871,542.466C358.871,542.466 356.064,510.399 370.428,491.477L373.925,481.375L422.298,480.631Z" style="fill:rgb(47,46,65);fill-rule:nonzero;"/>
    </g>
    <g transform="matrix(1,0,0,1,-299.008,-147.505)">
        <path d="M351.709,514.79C356.134,513.584 359.227,509.535 359.227,504.949C359.227,503.438 358.891,501.946 358.244,500.581L380.225,428.918L364.057,425.713L343.953,495.958C340.71,497.766 338.694,501.2 338.694,504.914C338.694,510.539 343.323,515.169 348.948,515.169C349.881,515.169 350.81,515.041 351.709,514.79Z" style="fill:rgb(255,182,182);fill-rule:nonzero;"/>
    </g>
    <g transform="matrix(1,0,0,1,-299.008,-147.505)">
        <path d="M380.699,473.574C380.397,473.574 380.097,473.544 379.801,473.485C377.762,473.077 376.234,471.349 376.079,469.276C375.568,462.278 373.035,450.098 368.552,433.072C367.933,430.705 367.62,428.268 367.62,425.821C367.62,410.102 380.554,397.168 396.273,397.168C402.615,397.168 408.781,399.273 413.798,403.151C419.918,407.839 423.863,414.831 424.711,422.493C426.939,442.116 422.738,461.818 420.829,469.378C420.314,471.4 418.501,472.841 416.415,472.885L380.798,473.573C380.765,473.574 380.732,473.574 380.699,473.574Z" style="fill:rgb(63,61,86);fill-rule:nonzero;"/>
    </g>
    <g transform="matrix(1,0,0,1,-299.008,-147.505)">
        <path d="M480.206,410.625C479.992,411.105 479.816,411.601 479.68,412.108L435.098,427.258L426.484,419.732L413.427,431.249L427.382,446.054C429.691,448.503 433.367,449.139 436.365,447.608L484.07,423.24C485.638,424.201 487.442,424.711 489.281,424.711C494.749,424.711 499.248,420.212 499.248,414.744C499.248,409.277 494.749,404.778 489.281,404.778C485.378,404.778 481.819,407.071 480.206,410.625L480.206,410.625Z" style="fill:rgb(255,182,182);fill-rule:nonzero;"/>
    </g>
    <g transform="matrix(1,0,0,1,-299.008,-147.505)">
        <path d="M433.544,428.086L417.292,442.281C416.514,442.961 415.515,443.335 414.481,443.335C413.028,443.335 411.672,442.594 410.886,441.372L399.262,423.27C397.402,421.116 396.378,418.362 396.378,415.516C396.378,409.007 401.734,403.651 408.243,403.651C411.667,403.651 414.929,405.133 417.181,407.711L433.505,421.616C434.457,422.428 435.006,423.617 435.006,424.868C435.006,426.101 434.472,427.275 433.544,428.086L433.544,428.086Z" style="fill:rgb(63,61,86);fill-rule:nonzero;"/>
    </g>
    <g transform="matrix(1,0,0,1,-299.008,-147.505)">
        <path d="M377.657,447.267L357.573,439.376C355.941,438.735 354.862,437.153 354.862,435.4C354.862,434.653 355.058,433.919 355.43,433.272L366.146,414.617C367.943,410.12 372.321,407.155 377.164,407.155C383.674,407.155 389.03,412.511 389.03,419.02C389.03,420.505 388.751,421.977 388.208,423.359L383.382,444.253C382.935,446.184 381.201,447.562 379.219,447.562C378.684,447.562 378.154,447.462 377.657,447.267L377.657,447.267Z" style="fill:rgb(63,61,86);fill-rule:nonzero;"/>
    </g>
    <circle cx="93.537" cy="223.418" r="21.847" style="fill:rgb(255,182,182);"/>
    <g transform="matrix(1,0,0,1,-299.008,-147.505)">
        <path d="M421.792,363.559L387.102,363.559L387.102,348.438C394.716,345.413 402.167,342.84 406.671,348.438C414.966,348.438 421.792,355.264 421.792,363.559L421.792,363.559Z" style="fill:rgb(47,46,65);fill-rule:nonzero;"/>
    </g>
    <circle cx="86.095" cy="221.054" r="25" style="fill:rgb(47,46,65);"/>
    <circle cx="68.095" cy="202.054" r="16" style="fill:rgb(47,46,65);"/>
</svg>
